<svg width="44" height="45" viewBox="0 0 44 45" fill="none" xmlns="http://www.w3.org/2000/svg">
<ellipse cx="22" cy="22.5" rx="22" ry="22.5" fill="#26DCA2"/>
<path fill-rule="evenodd" clip-rule="evenodd" d="M26.9395 13C28.2805 13 29.5705 13.53 30.5195 14.481C31.4695 15.43 32.0005 16.71 32.0005 18.05V25.95C32.0005 28.74 29.7305 31 26.9395 31H17.0605C14.2695 31 12.0005 28.74 12.0005 25.95V18.05C12.0005 15.26 14.2595 13 17.0605 13H26.9395ZM28.5305 19.54L28.6105 19.46C28.8495 19.17 28.8495 18.75 28.5995 18.46C28.4605 18.311 28.2695 18.22 28.0705 18.2C27.8605 18.189 27.6605 18.26 27.5095 18.4L23.0005 22C22.4205 22.481 21.5895 22.481 21.0005 22L16.5005 18.4C16.1895 18.17 15.7595 18.2 15.5005 18.47C15.2305 18.74 15.2005 19.17 15.4295 19.47L15.5605 19.6L20.1105 23.15C20.6705 23.59 21.3495 23.83 22.0605 23.83C22.7695 23.83 23.4605 23.59 24.0195 23.15L28.5305 19.54Z" fill="white"/>
</svg>
