<svg width="99" height="53" viewBox="0 0 99 53" fill="none" xmlns="http://www.w3.org/2000/svg">
<rect width="24.75" height="43.3125" rx="4.43284" fill="#26DCA2"/>
<path d="M29.5763 5.44375V31.8272C29.5763 37.3712 32.3483 40.5393 37.6943 40.5393C43.0403 40.5393 45.8123 37.3712 45.8123 31.8272V5.44375H40.6643V32.1737C40.6643 34.6487 39.5753 35.5397 37.8428 35.5397C36.1103 35.5397 35.0213 34.6487 35.0213 32.1737V5.44375H29.5763ZM57.7634 5.44375H49.5464V40.0938H58.1099C63.5549 40.0938 66.3764 37.2227 66.3764 31.8767V29.0552C66.3764 25.3922 65.2379 22.7687 62.3174 21.6302C64.7429 20.4917 65.8319 18.2147 65.8319 14.6508V13.4132C65.8319 8.06725 63.4064 5.44375 57.7634 5.44375ZM57.4169 24.5012C59.8919 24.5012 60.9314 25.4912 60.9314 28.7087V31.7282C60.9314 34.3022 59.9414 35.1437 58.1099 35.1437H54.9914V24.5012H57.4169ZM57.6149 10.3937C59.5454 10.3937 60.3869 11.4827 60.3869 13.9578V15.8882C60.3869 18.6602 59.1494 19.5512 57.1199 19.5512H54.9914V10.3937H57.6149ZM69.6558 40.0938H75.1008V5.44375H69.6558V40.0938ZM90.7146 40.0938H96.3081V5.44375H91.4571V26.1842L85.8636 5.44375H79.0326V40.0938H83.9331V14.9972L90.7146 40.0938Z" fill="#1D293F"/>
<path d="M9.59063 22.1H15.0047V35.0938H19.8557V4.775H15.0047V17.7687H9.59063V4.775H4.82625V35.0938H9.59063V22.1Z" fill="white"/>
</svg>
