<svg width="301" height="160" viewBox="0 0 301 160" fill="none" xmlns="http://www.w3.org/2000/svg">
<rect width="75.0441" height="131.327" rx="13.4407" fill="#26DCA2"/>
<path d="M89.6777 17.3186V97.3156C89.6777 114.126 98.0827 123.731 114.292 123.731C130.502 123.731 138.907 114.126 138.907 97.3156V17.3186H123.297V98.3662C123.297 105.871 119.996 108.572 114.742 108.572C109.489 108.572 106.187 105.871 106.187 98.3662V17.3186H89.6777ZM175.144 17.3186H150.229V122.38H176.194C192.704 122.38 201.259 113.675 201.259 97.4657V88.9107C201.259 77.8042 197.807 69.8495 188.952 66.3974C196.306 62.9454 199.608 56.0414 199.608 45.235V41.4828C199.608 25.2733 192.254 17.3186 175.144 17.3186ZM174.093 75.1026C181.597 75.1026 184.749 78.1043 184.749 87.8601V97.0155C184.749 104.82 181.747 107.372 176.194 107.372H166.739V75.1026H174.093ZM174.693 32.3274C180.547 32.3274 183.098 35.6294 183.098 43.1338V48.9872C183.098 57.3922 179.346 60.0937 173.192 60.0937H166.739V32.3274H174.693ZM211.202 122.38H227.712V17.3186H211.202V122.38ZM275.054 122.38H292.014V17.3186H277.306V80.2056L260.346 17.3186H239.633V122.38H254.492V46.2856L275.054 122.38Z" fill="#1D293F"/>
<path d="M29.0796 67.9822H45.4955V107.38H60.2042V15.4513H45.4955V54.8495H29.0796V15.4513H14.6336V107.38H29.0796V67.9822Z" fill="white"/>
</svg>
