<svg width="44" height="45" viewBox="0 0 44 45" fill="none" xmlns="http://www.w3.org/2000/svg">
<ellipse cx="22" cy="22.5" rx="22" ry="22.5" fill="#26DCA2"/>
<path fill-rule="evenodd" clip-rule="evenodd" d="M17.5981 13.1816C20.056 11.8063 23.0773 11.8303 25.5122 13.2446C27.9231 14.6876 29.3885 17.2629 29.3748 20.0333C29.3187 22.7855 27.7475 25.3726 25.7834 27.3725C24.6498 28.532 23.3817 29.5573 22.0049 30.4275C21.8632 30.5064 21.7078 30.5593 21.5467 30.5834C21.3915 30.5771 21.2405 30.5329 21.1071 30.455C19.0052 29.1475 17.1613 27.4786 15.6639 25.5285C14.4109 23.9007 13.6991 21.9341 13.625 19.8957C13.6234 17.12 15.1401 14.5569 17.5981 13.1816ZM19.0184 21.0444C19.4319 22.026 20.4078 22.6663 21.4906 22.6663C22.1999 22.6712 22.8817 22.3976 23.3842 21.9065C23.8866 21.4153 24.1679 20.7475 24.1654 20.0517C24.1692 18.9896 23.5199 18.0301 22.5207 17.6211C21.5215 17.2121 20.3694 17.4343 19.6025 18.184C18.8355 18.9336 18.605 20.0629 19.0184 21.0444Z" fill="white"/>
<ellipse opacity="0.4" cx="21.5" cy="32.7501" rx="5.625" ry="1.08333" fill="white"/>
</svg>
