<svg width="278" height="264" viewBox="0 0 278 264" fill="none" xmlns="http://www.w3.org/2000/svg">
<rect width="278" height="264" fill="white"/>
<rect width="278" height="264" fill="url(#paint0_linear)"/>
<path d="M49.04 203.008C49.04 204.328 48.416 205.168 47.168 205.168C45.896 205.168 45.248 204.304 45.224 202.888H41.864C41.864 206.272 44.072 208.168 47.216 208.168C50.312 208.168 52.424 206.32 52.424 203.008V191.248H49.04V203.008ZM55.4795 201.304C55.4795 205.456 58.1675 208.216 61.5275 208.216C63.6395 208.216 65.1515 207.208 65.9435 206.056V208H69.3275V194.704H65.9435V196.6C65.1515 195.496 63.6875 194.488 61.5515 194.488C58.1675 194.488 55.4795 197.152 55.4795 201.304ZM65.9435 201.352C65.9435 203.872 64.2635 205.264 62.4155 205.264C60.6155 205.264 58.9115 203.824 58.9115 201.304C58.9115 198.784 60.6155 197.44 62.4155 197.44C64.2635 197.44 65.9435 198.832 65.9435 201.352ZM75.9691 201.376C75.9691 198.808 77.1691 198.04 79.1611 198.04H80.0491V194.512C78.2011 194.512 76.8091 195.4 75.9691 196.768V194.704H72.6091V208H75.9691V201.376ZM82.3123 208H85.6723V194.704H82.3123V208ZM84.0163 193.12C85.1923 193.12 86.0803 192.256 86.0803 191.152C86.0803 190.048 85.1923 189.184 84.0163 189.184C82.8163 189.184 81.9523 190.048 81.9523 191.152C81.9523 192.256 82.8163 193.12 84.0163 193.12ZM98.3039 208H101.664V200.2C101.664 196.528 99.4559 194.512 96.3599 194.512C94.6559 194.512 93.2159 195.232 92.3519 196.36V194.704H88.9919V208H92.3519V200.656C92.3519 198.52 93.5279 197.368 95.3519 197.368C97.1279 197.368 98.3039 198.52 98.3039 200.656V208ZM103.995 201.304C103.995 205.456 106.683 208.216 110.067 208.216C112.155 208.216 113.667 207.184 114.459 206.032V208.096C114.459 210.568 113.019 211.624 111.171 211.624C109.491 211.624 108.243 210.832 107.907 209.632H104.571C104.907 212.68 107.523 214.552 111.267 214.552C115.635 214.552 117.843 211.696 117.843 208.096V194.704H114.459V196.6C113.667 195.448 112.155 194.488 110.067 194.488C106.683 194.488 103.995 197.152 103.995 201.304ZM114.459 201.352C114.459 203.872 112.779 205.264 110.931 205.264C109.131 205.264 107.427 203.824 107.427 201.304C107.427 198.784 109.131 197.44 110.931 197.44C112.779 197.44 114.459 198.832 114.459 201.352ZM120.261 201.304C120.261 205.456 122.949 208.216 126.309 208.216C128.421 208.216 129.933 207.208 130.725 206.056V208H134.109V194.704H130.725V196.6C129.933 195.496 128.469 194.488 126.333 194.488C122.949 194.488 120.261 197.152 120.261 201.304ZM130.725 201.352C130.725 203.872 129.045 205.264 127.197 205.264C125.397 205.264 123.693 203.824 123.693 201.304C123.693 198.784 125.397 197.44 127.197 197.44C129.045 197.44 130.725 198.832 130.725 201.352ZM146.702 208H150.062V200.2C150.062 196.528 147.854 194.512 144.758 194.512C143.054 194.512 141.614 195.232 140.75 196.36V194.704H137.39V208H140.75V200.656C140.75 198.52 141.926 197.368 143.75 197.368C145.526 197.368 146.702 198.52 146.702 200.656V208Z" fill="#1D293F"/>
<g clip-path="url(#clip0)">
<path d="M75.0006 93.5254C66.9366 93.5254 59.5604 97.6263 55.2706 104.494C54.2318 106.158 54.7377 108.349 56.4016 109.389C58.0642 110.426 60.2567 109.922 61.2969 108.256C64.2794 103.481 69.4034 100.63 75.0006 100.63C80.5977 100.63 85.7203 103.481 88.7043 108.256C89.3778 109.336 90.5359 109.929 91.7196 109.929C92.3633 109.929 93.0127 109.754 93.5981 109.389C95.262 108.35 95.7679 106.159 94.7292 104.494C90.4407 97.6263 83.0659 93.5254 75.0006 93.5254Z" fill="#010002"/>
<path d="M108.461 95.9396C101.199 84.3062 88.6901 77.362 75.0006 77.362C61.3111 77.362 48.8038 84.3062 41.5399 95.9396C40.5011 97.6036 41.007 99.7947 42.6709 100.833C44.3363 101.871 46.5274 101.366 47.5661 99.7023C53.5228 90.162 63.7793 84.4668 75.0006 84.4668C86.2219 84.4668 96.4784 90.162 102.435 99.7023C103.109 100.781 104.267 101.373 105.45 101.373C106.093 101.373 106.743 101.2 107.329 100.833C108.994 99.7933 109.5 97.6036 108.461 95.9396Z" fill="#010002"/>
<path d="M75.0006 122.638C78.2292 122.638 80.8464 120.021 80.8464 116.792C80.8464 113.564 78.2292 110.946 75.0006 110.946C71.7721 110.946 69.1548 113.564 69.1548 116.792C69.1548 120.021 71.7721 122.638 75.0006 122.638Z" fill="#26DCA2"/>
</g>
<defs>
<linearGradient id="paint0_linear" x1="158" y1="310" x2="139" y2="-228.5" gradientUnits="userSpaceOnUse">
<stop stop-color="#26DCA2" stop-opacity="0.1"/>
<stop offset="1" stop-color="white" stop-opacity="0"/>
</linearGradient>
<clipPath id="clip0">
<rect width="68" height="68" fill="white" transform="translate(41 66)"/>
</clipPath>
</defs>
</svg>
