<svg width="278" height="264" viewBox="0 0 278 264" fill="none" xmlns="http://www.w3.org/2000/svg">
<rect width="278" height="264" fill="white"/>
<rect width="278" height="264" fill="url(#paint0_linear)"/>
<path d="M54.5 80.5L41 94L54.5 107.5" stroke="#1D293F" stroke-width="5" stroke-linecap="round" stroke-linejoin="round"/>
<path d="M95 80.5L108.5 94L95 107.5" stroke="#1D293F" stroke-width="5" stroke-linecap="round" stroke-linejoin="round"/>
<path d="M68 121L81.5 67" stroke="#26DCA2" stroke-width="5" stroke-linecap="round" stroke-linejoin="round"/>
<path d="M65.048 191.248L60.368 208H56.408L53.264 196.072L49.976 208L46.04 208.024L41.528 191.248H45.128L48.08 204.256L51.488 191.248H55.232L58.448 204.184L61.424 191.248H65.048ZM79.6019 201.064C79.6019 201.544 79.5699 201.976 79.5059 202.36H69.7859C69.8659 203.32 70.2019 204.072 70.7939 204.616C71.3859 205.16 72.1139 205.432 72.9779 205.432C74.2259 205.432 75.1139 204.896 75.6419 203.824H79.2659C78.8819 205.104 78.1459 206.16 77.0579 206.992C75.9699 207.808 74.6339 208.216 73.0499 208.216C71.7699 208.216 70.6179 207.936 69.5939 207.376C68.5859 206.8 67.7939 205.992 67.2179 204.952C66.6579 203.912 66.3779 202.712 66.3779 201.352C66.3779 199.976 66.6579 198.768 67.2179 197.728C67.7779 196.688 68.5619 195.888 69.5699 195.328C70.5779 194.768 71.7379 194.488 73.0499 194.488C74.3139 194.488 75.4419 194.76 76.4339 195.304C77.4419 195.848 78.2179 196.624 78.7619 197.632C79.3219 198.624 79.6019 199.768 79.6019 201.064ZM76.1219 200.104C76.1059 199.24 75.7939 198.552 75.1859 198.04C74.5779 197.512 73.8339 197.248 72.9539 197.248C72.1219 197.248 71.4179 197.504 70.8419 198.016C70.2819 198.512 69.9379 199.208 69.8099 200.104H76.1219ZM85.4144 196.648C85.8464 196.008 86.4384 195.488 87.1904 195.088C87.9584 194.688 88.8304 194.488 89.8064 194.488C90.9424 194.488 91.9664 194.768 92.8784 195.328C93.8064 195.888 94.5344 196.688 95.0624 197.728C95.6064 198.752 95.8784 199.944 95.8784 201.304C95.8784 202.664 95.6064 203.872 95.0624 204.928C94.5344 205.968 93.8064 206.776 92.8784 207.352C91.9664 207.928 90.9424 208.216 89.8064 208.216C88.8144 208.216 87.9424 208.024 87.1904 207.64C86.4544 207.24 85.8624 206.728 85.4144 206.104V208H82.0544V190.24H85.4144V196.648ZM92.4464 201.304C92.4464 200.504 92.2784 199.816 91.9424 199.24C91.6224 198.648 91.1904 198.2 90.6464 197.896C90.1184 197.592 89.5424 197.44 88.9184 197.44C88.3104 197.44 87.7344 197.6 87.1904 197.92C86.6624 198.224 86.2304 198.672 85.8944 199.264C85.5744 199.856 85.4144 200.552 85.4144 201.352C85.4144 202.152 85.5744 202.848 85.8944 203.44C86.2304 204.032 86.6624 204.488 87.1904 204.808C87.7344 205.112 88.3104 205.264 88.9184 205.264C89.5424 205.264 90.1184 205.104 90.6464 204.784C91.1904 204.464 91.6224 204.008 91.9424 203.416C92.2784 202.824 92.4464 202.12 92.4464 201.304ZM109.895 191.248C111.655 191.248 113.199 191.592 114.527 192.28C115.871 192.968 116.903 193.952 117.623 195.232C118.359 196.496 118.727 197.968 118.727 199.648C118.727 201.328 118.359 202.8 117.623 204.064C116.903 205.312 115.871 206.28 114.527 206.968C113.199 207.656 111.655 208 109.895 208H104.039V191.248H109.895ZM109.775 205.144C111.535 205.144 112.895 204.664 113.855 203.704C114.815 202.744 115.295 201.392 115.295 199.648C115.295 197.904 114.815 196.544 113.855 195.568C112.895 194.576 111.535 194.08 109.775 194.08H107.399V205.144H109.775ZM133.602 201.064C133.602 201.544 133.57 201.976 133.506 202.36H123.786C123.866 203.32 124.202 204.072 124.794 204.616C125.386 205.16 126.114 205.432 126.978 205.432C128.226 205.432 129.114 204.896 129.642 203.824H133.266C132.882 205.104 132.146 206.16 131.058 206.992C129.97 207.808 128.634 208.216 127.05 208.216C125.77 208.216 124.618 207.936 123.594 207.376C122.586 206.8 121.794 205.992 121.218 204.952C120.658 203.912 120.378 202.712 120.378 201.352C120.378 199.976 120.658 198.768 121.218 197.728C121.778 196.688 122.562 195.888 123.57 195.328C124.578 194.768 125.738 194.488 127.05 194.488C128.314 194.488 129.442 194.76 130.434 195.304C131.442 195.848 132.218 196.624 132.762 197.632C133.322 198.624 133.602 199.768 133.602 201.064ZM130.122 200.104C130.106 199.24 129.794 198.552 129.186 198.04C128.578 197.512 127.834 197.248 126.954 197.248C126.122 197.248 125.418 197.504 124.842 198.016C124.282 198.512 123.938 199.208 123.81 200.104H130.122ZM141.598 204.904L144.958 194.704H148.534L143.614 208H139.534L134.638 194.704H138.238L141.598 204.904ZM162.782 201.064C162.782 201.544 162.75 201.976 162.686 202.36H152.966C153.046 203.32 153.382 204.072 153.974 204.616C154.566 205.16 155.294 205.432 156.158 205.432C157.406 205.432 158.294 204.896 158.822 203.824H162.446C162.062 205.104 161.326 206.16 160.238 206.992C159.15 207.808 157.814 208.216 156.23 208.216C154.95 208.216 153.798 207.936 152.774 207.376C151.766 206.8 150.974 205.992 150.398 204.952C149.838 203.912 149.558 202.712 149.558 201.352C149.558 199.976 149.838 198.768 150.398 197.728C150.958 196.688 151.742 195.888 152.75 195.328C153.758 194.768 154.918 194.488 156.23 194.488C157.494 194.488 158.622 194.76 159.614 195.304C160.622 195.848 161.398 196.624 161.942 197.632C162.502 198.624 162.782 199.768 162.782 201.064ZM159.302 200.104C159.286 199.24 158.974 198.552 158.366 198.04C157.758 197.512 157.014 197.248 156.134 197.248C155.302 197.248 154.598 197.504 154.022 198.016C153.462 198.512 153.118 199.208 152.99 200.104H159.302ZM168.594 190.24V208H165.234V190.24H168.594ZM177.818 208.216C176.538 208.216 175.386 207.936 174.362 207.376C173.338 206.8 172.53 205.992 171.938 204.952C171.362 203.912 171.074 202.712 171.074 201.352C171.074 199.992 171.37 198.792 171.962 197.752C172.57 196.712 173.394 195.912 174.434 195.352C175.474 194.776 176.634 194.488 177.914 194.488C179.194 194.488 180.354 194.776 181.394 195.352C182.434 195.912 183.25 196.712 183.842 197.752C184.45 198.792 184.754 199.992 184.754 201.352C184.754 202.712 184.442 203.912 183.818 204.952C183.21 205.992 182.378 206.8 181.322 207.376C180.282 207.936 179.114 208.216 177.818 208.216ZM177.818 205.288C178.426 205.288 178.994 205.144 179.522 204.856C180.066 204.552 180.498 204.104 180.818 203.512C181.138 202.92 181.298 202.2 181.298 201.352C181.298 200.088 180.962 199.12 180.29 198.448C179.634 197.76 178.826 197.416 177.866 197.416C176.906 197.416 176.098 197.76 175.442 198.448C174.802 199.12 174.482 200.088 174.482 201.352C174.482 202.616 174.794 203.592 175.418 204.28C176.058 204.952 176.858 205.288 177.818 205.288ZM190.579 196.624C191.011 196.016 191.603 195.512 192.355 195.112C193.123 194.696 193.995 194.488 194.971 194.488C196.107 194.488 197.131 194.768 198.043 195.328C198.971 195.888 199.699 196.688 200.227 197.728C200.771 198.752 201.043 199.944 201.043 201.304C201.043 202.664 200.771 203.872 200.227 204.928C199.699 205.968 198.971 206.776 198.043 207.352C197.131 207.928 196.107 208.216 194.971 208.216C193.995 208.216 193.131 208.016 192.379 207.616C191.643 207.216 191.043 206.712 190.579 206.104V214.336H187.219V194.704H190.579V196.624ZM197.611 201.304C197.611 200.504 197.443 199.816 197.107 199.24C196.787 198.648 196.355 198.2 195.811 197.896C195.283 197.592 194.707 197.44 194.083 197.44C193.475 197.44 192.899 197.6 192.355 197.92C191.827 198.224 191.395 198.672 191.059 199.264C190.739 199.856 190.579 200.552 190.579 201.352C190.579 202.152 190.739 202.848 191.059 203.44C191.395 204.032 191.827 204.488 192.355 204.808C192.899 205.112 193.475 205.264 194.083 205.264C194.707 205.264 195.283 205.104 195.811 204.784C196.355 204.464 196.787 204.008 197.107 203.416C197.443 202.824 197.611 202.12 197.611 201.304ZM215.844 201.064C215.844 201.544 215.812 201.976 215.748 202.36H206.028C206.108 203.32 206.444 204.072 207.036 204.616C207.628 205.16 208.356 205.432 209.22 205.432C210.468 205.432 211.356 204.896 211.884 203.824H215.508C215.124 205.104 214.388 206.16 213.3 206.992C212.212 207.808 210.876 208.216 209.292 208.216C208.012 208.216 206.86 207.936 205.836 207.376C204.828 206.8 204.036 205.992 203.46 204.952C202.9 203.912 202.62 202.712 202.62 201.352C202.62 199.976 202.9 198.768 203.46 197.728C204.02 196.688 204.804 195.888 205.812 195.328C206.82 194.768 207.98 194.488 209.292 194.488C210.556 194.488 211.684 194.76 212.676 195.304C213.684 195.848 214.46 196.624 215.004 197.632C215.564 198.624 215.844 199.768 215.844 201.064ZM212.364 200.104C212.348 199.24 212.036 198.552 211.428 198.04C210.82 197.512 210.076 197.248 209.196 197.248C208.364 197.248 207.66 197.504 207.084 198.016C206.524 198.512 206.18 199.208 206.052 200.104H212.364ZM221.657 196.768C222.089 196.064 222.649 195.512 223.337 195.112C224.041 194.712 224.841 194.512 225.737 194.512V198.04H224.849C223.793 198.04 222.993 198.288 222.449 198.784C221.921 199.28 221.657 200.144 221.657 201.376V208H218.297V194.704H221.657V196.768Z" fill="#1D293F"/>
<defs>
<linearGradient id="paint0_linear" x1="158" y1="310" x2="139" y2="-228.5" gradientUnits="userSpaceOnUse">
<stop stop-color="#26DCA2" stop-opacity="0.1"/>
<stop offset="1" stop-color="white" stop-opacity="0"/>
</linearGradient>
</defs>
</svg>
