<svg width="278" height="264" viewBox="0 0 278 264" fill="none" xmlns="http://www.w3.org/2000/svg">
<rect width="278" height="264" fill="white"/>
<rect width="278" height="264" fill="url(#paint0_linear)"/>
<path d="M41.768 193.96H46.232V208H49.592V193.96H54.056V191.248H41.768V193.96ZM62.2196 197.248C63.9476 197.248 65.3396 198.352 65.3876 200.104H59.0756C59.3396 198.28 60.6116 197.248 62.2196 197.248ZM68.5316 203.824H64.9076C64.4756 204.712 63.6836 205.432 62.2436 205.432C60.5636 205.432 59.2196 204.328 59.0516 202.36H68.7716C68.8436 201.928 68.8676 201.496 68.8676 201.064C68.8676 197.104 66.1556 194.488 62.3156 194.488C58.3796 194.488 55.6436 197.152 55.6436 201.352C55.6436 205.528 58.4516 208.216 62.3156 208.216C65.6036 208.216 67.8116 206.272 68.5316 203.824ZM71.3201 208H74.6801V202.336L79.1921 208H83.5601L77.6561 201.376L83.5121 194.704H79.1441L74.6801 200.344V190.24H71.3201V208ZM94.6477 208H98.0077V200.2C98.0077 196.528 95.7997 194.512 92.7037 194.512C90.9997 194.512 89.5597 195.232 88.6957 196.36V194.704H85.3357V208H88.6957V200.656C88.6957 198.52 89.8717 197.368 91.6957 197.368C93.4717 197.368 94.6477 198.52 94.6477 200.656V208ZM101.203 208H104.563V194.704H101.203V208ZM102.907 193.12C104.083 193.12 104.971 192.256 104.971 191.152C104.971 190.048 104.083 189.184 102.907 189.184C101.707 189.184 100.843 190.048 100.843 191.152C100.843 192.256 101.707 193.12 102.907 193.12ZM107.883 208H111.243V202.336L115.755 208H120.123L114.219 201.376L120.075 194.704H115.707L111.243 200.344V190.24H107.883V208Z" fill="#1D293F"/>
<path d="M100.903 87.4194H95.7484C95.0484 84.4546 93.8732 81.6226 92.2683 79.0334L95.9151 75.3866C96.3433 74.9584 96.3433 74.2641 95.9151 73.8358L88.1642 66.0805C87.7359 65.6524 87.0416 65.6524 86.6134 66.0805L82.9655 69.7273C80.3765 68.1237 77.545 66.9498 74.5806 66.2516V61.0968C74.5806 60.4911 74.0896 60 73.4839 60H62.5161C61.9104 60 61.4194 60.4911 61.4194 61.0968V66.2516C58.4548 66.9512 55.6232 68.1264 53.0345 69.7317L49.3866 66.0805C48.9584 65.6524 48.2641 65.6524 47.8358 66.0805L40.0805 73.8358C39.6524 74.2641 39.6524 74.9584 40.0805 75.3866L43.7273 79.0334C42.1239 81.6229 40.9503 84.4549 40.2516 87.4194H35.0968C34.4911 87.4194 34 87.9104 34 88.5161V99.4839C34 100.09 34.4911 100.581 35.0968 100.581H40.2516C40.9516 103.545 42.1268 106.377 43.7317 108.967L40.0805 112.613C39.6524 113.042 39.6524 113.736 40.0805 114.164L47.8358 121.919C48.271 122.331 48.9515 122.331 49.3866 121.919L53.0334 118.273C55.6229 119.876 58.4549 121.05 61.4194 121.748V126.903C61.4194 127.509 61.9104 128 62.5161 128H73.4839C74.0896 128 74.5806 127.509 74.5806 126.903V121.748C77.5454 121.048 80.3774 119.873 82.9666 118.268L86.6134 121.915C87.0416 122.343 87.7359 122.343 88.1642 121.915L95.9195 114.16C96.3476 113.732 96.3476 113.037 95.9195 112.609L92.2727 108.962C93.8756 106.374 95.0493 103.544 95.7484 100.581H100.903C101.509 100.581 102 100.09 102 99.4839V88.5161C102 87.9104 101.509 87.4194 100.903 87.4194ZM99.8065 98.3871H94.871C94.3497 98.387 93.9003 98.7538 93.7961 99.2645C93.1261 102.566 91.8226 105.705 89.9574 108.51C89.6688 108.945 89.7265 109.523 90.0956 109.892L93.5921 113.388L87.3877 119.592L83.8923 116.096C83.5232 115.727 82.9452 115.669 82.5103 115.957C79.7055 117.823 76.5655 119.126 73.2645 119.796C72.7538 119.9 72.387 120.35 72.3871 120.871V125.806H63.6129V120.871C63.613 120.35 63.2462 119.9 62.7355 119.796C59.4345 119.126 56.2945 117.823 53.4897 115.957C53.0548 115.669 52.4768 115.727 52.1077 116.096L48.6123 119.592L42.4068 113.389L45.9033 109.893C46.2724 109.524 46.3301 108.946 46.0415 108.511C44.1763 105.707 42.8728 102.567 42.2028 99.2656C42.099 98.7548 41.6503 98.3876 41.129 98.3871H36.1935V89.6129H41.129C41.6503 89.613 42.0997 89.2462 42.2039 88.7355C42.8739 85.4345 44.1774 82.2945 46.0426 79.4897C46.3312 79.0548 46.2733 78.4768 45.9044 78.1077L42.4068 74.6112L48.6112 68.4068L52.1077 71.9033C52.4768 72.2724 53.0548 72.3301 53.4897 72.0415C56.2943 70.1767 59.4338 68.873 62.7344 68.2028C63.2452 68.099 63.6124 67.6503 63.6129 67.129V62.1935H72.3871V67.129C72.387 67.6503 72.7538 68.0997 73.2645 68.2039C76.5651 68.8741 79.7046 70.1778 82.5092 72.0426C82.9441 72.3312 83.5221 72.2735 83.8912 71.9044L87.3877 68.4079L93.5921 74.6123L90.0956 78.1077C89.7265 78.4768 89.6688 79.0548 89.9574 79.4897C91.8226 82.2945 93.1261 85.4345 93.7961 88.7355C93.9003 89.2462 94.3497 89.613 94.871 89.6129H99.8065V98.3871Z" fill="black"/>
<path d="M68.0001 81.9354C61.337 81.9354 55.9355 87.3369 55.9355 93.9999C55.9355 100.663 61.337 106.064 68.0001 106.064C74.6631 106.064 80.0646 100.663 80.0646 93.9999C80.0568 87.3402 74.6598 81.9432 68.0001 81.9354ZM68.0001 103.871C62.5485 103.871 58.1291 99.4515 58.1291 93.9999C58.1291 88.5483 62.5485 84.129 68.0001 84.129C73.4517 84.129 77.871 88.5483 77.871 93.9999C77.865 99.449 73.4491 103.865 68.0001 103.871Z" fill="#26DCA2"/>
<defs>
<linearGradient id="paint0_linear" x1="158" y1="310" x2="139" y2="-228.5" gradientUnits="userSpaceOnUse">
<stop stop-color="#26DCA2" stop-opacity="0.1"/>
<stop offset="1" stop-color="white" stop-opacity="0"/>
</linearGradient>
</defs>
</svg>
