<svg width="278" height="264" viewBox="0 0 278 264" fill="none" xmlns="http://www.w3.org/2000/svg">
<rect width="278" height="264" fill="white"/>
<rect width="278" height="264" fill="url(#paint0_linear)"/>
<path d="M31.512 186.248C33.272 186.248 34.816 186.592 36.144 187.28C37.488 187.968 38.52 188.952 39.24 190.232C39.976 191.496 40.344 192.968 40.344 194.648C40.344 196.328 39.976 197.8 39.24 199.064C38.52 200.312 37.488 201.28 36.144 201.968C34.816 202.656 33.272 203 31.512 203H25.656V186.248H31.512ZM31.392 200.144C33.152 200.144 34.512 199.664 35.472 198.704C36.432 197.744 36.912 196.392 36.912 194.648C36.912 192.904 36.432 191.544 35.472 190.568C34.512 189.576 33.152 189.08 31.392 189.08H29.016V200.144H31.392ZM55.2191 196.064C55.2191 196.544 55.1871 196.976 55.1231 197.36H45.4031C45.4831 198.32 45.8191 199.072 46.4111 199.616C47.0031 200.16 47.7311 200.432 48.5951 200.432C49.8431 200.432 50.7311 199.896 51.2591 198.824H54.8831C54.4991 200.104 53.7631 201.16 52.6751 201.992C51.5871 202.808 50.2511 203.216 48.6671 203.216C47.3871 203.216 46.2351 202.936 45.2111 202.376C44.2031 201.8 43.4111 200.992 42.8351 199.952C42.2751 198.912 41.9951 197.712 41.9951 196.352C41.9951 194.976 42.2751 193.768 42.8351 192.728C43.3951 191.688 44.1791 190.888 45.1871 190.328C46.1951 189.768 47.3551 189.488 48.6671 189.488C49.9311 189.488 51.0591 189.76 52.0511 190.304C53.0591 190.848 53.8351 191.624 54.3791 192.632C54.9391 193.624 55.2191 194.768 55.2191 196.064ZM51.7391 195.104C51.7231 194.24 51.4111 193.552 50.8031 193.04C50.1951 192.512 49.4511 192.248 48.5711 192.248C47.7391 192.248 47.0351 192.504 46.4591 193.016C45.8991 193.512 45.5551 194.208 45.4271 195.104H51.7391ZM62.7596 203.216C61.6716 203.216 60.6956 203.024 59.8316 202.64C58.9676 202.24 58.2796 201.704 57.7676 201.032C57.2716 200.36 56.9996 199.616 56.9516 198.8H60.3356C60.3996 199.312 60.6476 199.736 61.0796 200.072C61.5276 200.408 62.0796 200.576 62.7356 200.576C63.3756 200.576 63.8716 200.448 64.2236 200.192C64.5916 199.936 64.7756 199.608 64.7756 199.208C64.7756 198.776 64.5516 198.456 64.1036 198.248C63.6716 198.024 62.9756 197.784 62.0156 197.528C61.0236 197.288 60.2076 197.04 59.5676 196.784C58.9436 196.528 58.3996 196.136 57.9356 195.608C57.4876 195.08 57.2636 194.368 57.2636 193.472C57.2636 192.736 57.4716 192.064 57.8876 191.456C58.3196 190.848 58.9276 190.368 59.7116 190.016C60.5116 189.664 61.4476 189.488 62.5196 189.488C64.1036 189.488 65.3676 189.888 66.3116 190.688C67.2556 191.472 67.7756 192.536 67.8716 193.88H64.6556C64.6076 193.352 64.3836 192.936 63.9836 192.632C63.5996 192.312 63.0796 192.152 62.4236 192.152C61.8156 192.152 61.3436 192.264 61.0076 192.488C60.6876 192.712 60.5276 193.024 60.5276 193.424C60.5276 193.872 60.7516 194.216 61.1996 194.456C61.6476 194.68 62.3436 194.912 63.2876 195.152C64.2476 195.392 65.0396 195.64 65.6636 195.896C66.2876 196.152 66.8236 196.552 67.2716 197.096C67.7356 197.624 67.9756 198.328 67.9916 199.208C67.9916 199.976 67.7756 200.664 67.3436 201.272C66.9276 201.88 66.3196 202.36 65.5196 202.712C64.7356 203.048 63.8156 203.216 62.7596 203.216ZM69.8857 196.304C69.8857 194.96 70.1497 193.768 70.6777 192.728C71.2218 191.688 71.9498 190.888 72.8618 190.328C73.7898 189.768 74.8218 189.488 75.9578 189.488C76.9498 189.488 77.8138 189.688 78.5498 190.088C79.3018 190.488 79.9018 190.992 80.3498 191.6V189.704H83.7338V203H80.3498V201.056C79.9178 201.68 79.3178 202.2 78.5498 202.616C77.7978 203.016 76.9258 203.216 75.9338 203.216C74.8138 203.216 73.7898 202.928 72.8618 202.352C71.9498 201.776 71.2218 200.968 70.6777 199.928C70.1497 198.872 69.8857 197.664 69.8857 196.304ZM80.3498 196.352C80.3498 195.536 80.1898 194.84 79.8698 194.264C79.5498 193.672 79.1178 193.224 78.5738 192.92C78.0298 192.6 77.4458 192.44 76.8218 192.44C76.1978 192.44 75.6218 192.592 75.0938 192.896C74.5658 193.2 74.1338 193.648 73.7978 194.24C73.4778 194.816 73.3178 195.504 73.3178 196.304C73.3178 197.104 73.4778 197.808 73.7978 198.416C74.1338 199.008 74.5658 199.464 75.0938 199.784C75.6378 200.104 76.2138 200.264 76.8218 200.264C77.4458 200.264 78.0298 200.112 78.5738 199.808C79.1178 199.488 79.5498 199.04 79.8698 198.464C80.1898 197.872 80.3498 197.168 80.3498 196.352ZM88.7194 188.12C88.1274 188.12 87.6314 187.936 87.2314 187.568C86.8474 187.184 86.6554 186.712 86.6554 186.152C86.6554 185.592 86.8474 185.128 87.2314 184.76C87.6314 184.376 88.1274 184.184 88.7194 184.184C89.3114 184.184 89.7994 184.376 90.1834 184.76C90.5834 185.128 90.7834 185.592 90.7834 186.152C90.7834 186.712 90.5834 187.184 90.1834 187.568C89.7994 187.936 89.3114 188.12 88.7194 188.12ZM90.3754 189.704V203H87.0154V189.704H90.3754ZM101.063 189.512C102.647 189.512 103.927 190.016 104.903 191.024C105.879 192.016 106.367 193.408 106.367 195.2V203H103.007V195.656C103.007 194.6 102.743 193.792 102.215 193.232C101.687 192.656 100.967 192.368 100.055 192.368C99.1271 192.368 98.3911 192.656 97.8471 193.232C97.3191 193.792 97.0551 194.6 97.0551 195.656V203H93.6951V189.704H97.0551V191.36C97.5031 190.784 98.0711 190.336 98.7591 190.016C99.4631 189.68 100.231 189.512 101.063 189.512Z" fill="#1D293F"/>
<path fill-rule="evenodd" clip-rule="evenodd" d="M40 100.762C40 81.4333 71.2381 50 71.2381 50C71.2381 50 102.476 81.4333 102.476 100.762C102.476 118.014 88.4904 132 71.2381 132C53.9858 132 40 118.014 40 100.762Z" stroke="#1D293F" stroke-width="5.20635" stroke-linecap="round" stroke-linejoin="round"/>
<path d="M71.2381 112.476C68.1143 112.476 59.5238 110.329 59.5238 100.762" stroke="#26DCA2" stroke-width="5.20635" stroke-linecap="round" stroke-linejoin="round"/>
<defs>
<linearGradient id="paint0_linear" x1="158" y1="310" x2="139" y2="-228.5" gradientUnits="userSpaceOnUse">
<stop stop-color="#26DCA2" stop-opacity="0.1"/>
<stop offset="1" stop-color="white" stop-opacity="0"/>
</linearGradient>
</defs>
</svg>
