<svg width="278" height="264" viewBox="0 0 278 264" fill="none" xmlns="http://www.w3.org/2000/svg">
<rect width="278" height="264" fill="white"/>
<rect width="278" height="264" fill="url(#paint0_linear)"/>
<path d="M52.112 208H56.36L49.256 199.552L56.168 191.248H52.112L46.016 198.76V191.248H42.656V208H46.016V200.536L52.112 208ZM71.4101 201.352C71.4101 197.152 68.4101 194.488 64.5701 194.488C60.7301 194.488 57.7301 197.152 57.7301 201.352C57.7301 205.528 60.6341 208.216 64.4741 208.216C68.3381 208.216 71.4101 205.528 71.4101 201.352ZM61.1381 201.352C61.1381 198.688 62.7461 197.416 64.5221 197.416C66.2981 197.416 67.9541 198.688 67.9541 201.352C67.9541 203.992 66.2501 205.288 64.4741 205.288C62.6741 205.288 61.1381 203.992 61.1381 201.352ZM83.1868 208H86.5468V200.2C86.5468 196.528 84.3387 194.512 81.2428 194.512C79.5388 194.512 78.0988 195.232 77.2348 196.36V194.704H73.8748V208H77.2348V200.656C77.2348 198.52 78.4108 197.368 80.2348 197.368C82.0108 197.368 83.1868 198.52 83.1868 200.656V208ZM90.2699 203.872C90.2699 206.92 91.9739 208 94.5179 208H96.6299V205.168H95.0699C94.0139 205.168 93.6539 204.784 93.6539 203.896V197.464H96.6299V194.704H93.6539V191.416H90.2699V194.704H88.6859V197.464H90.2699V203.872ZM102.407 201.376C102.407 198.808 103.607 198.04 105.599 198.04H106.487V194.512C104.639 194.512 103.247 195.4 102.407 196.768V194.704H99.0466V208H102.407V201.376ZM121.302 194.704H117.918V202.024C117.918 204.16 116.766 205.312 114.942 205.312C113.166 205.312 111.99 204.16 111.99 202.024V194.704H108.63V202.504C108.63 206.152 110.862 208.168 113.958 208.168C115.614 208.168 117.078 207.448 117.918 206.32V208H121.302V194.704ZM124.617 208H127.977V202.336L132.489 208H136.857L130.953 201.376L136.809 194.704H132.441L127.977 200.344V190.24H124.617V208ZM148.953 204.208C148.857 199.336 141.489 200.848 141.489 198.424C141.489 197.656 142.137 197.152 143.385 197.152C144.705 197.152 145.521 197.848 145.617 198.88H148.833C148.641 196.24 146.697 194.488 143.481 194.488C140.193 194.488 138.225 196.264 138.225 198.472C138.225 203.344 145.737 201.832 145.737 204.208C145.737 204.976 145.017 205.576 143.697 205.576C142.353 205.576 141.417 204.808 141.297 203.8H137.913C138.057 206.272 140.385 208.216 143.721 208.216C146.961 208.216 148.953 206.488 148.953 204.208ZM151.711 208H155.071V194.704H151.711V208ZM153.415 193.12C154.591 193.12 155.479 192.256 155.479 191.152C155.479 190.048 154.591 189.184 153.415 189.184C152.215 189.184 151.351 190.048 151.351 191.152C151.351 192.256 152.215 193.12 153.415 193.12ZM173.565 208H177.813L170.709 199.552L177.621 191.248H173.565L167.469 198.76V191.248H164.109V208H167.469V200.536L173.565 208ZM179.159 201.304C179.159 205.456 181.847 208.216 185.207 208.216C187.319 208.216 188.831 207.208 189.623 206.056V208H193.007V194.704H189.623V196.6C188.831 195.496 187.367 194.488 185.231 194.488C181.847 194.488 179.159 197.152 179.159 201.304ZM189.623 201.352C189.623 203.872 187.943 205.264 186.095 205.264C184.295 205.264 182.591 203.824 182.591 201.304C182.591 198.784 184.295 197.44 186.095 197.44C187.943 197.44 189.623 198.832 189.623 201.352ZM201.953 203.992L198.521 194.704H194.753L200.081 207.664L197.201 214.288H200.777L209.009 194.704H205.433L201.953 203.992ZM223.372 194.704H219.988V202.024C219.988 204.16 218.836 205.312 217.012 205.312C215.236 205.312 214.06 204.16 214.06 202.024V194.704H210.7V202.504C210.7 206.152 212.932 208.168 216.028 208.168C217.684 208.168 219.148 207.448 219.988 206.32V208H223.372V194.704Z" fill="#1D293F"/>
<path d="M70.1648 54.2287C69.5159 53.2449 68.3096 52.7877 67.1718 53.0943L64.9578 53.6957C63.7428 53.9893 62.8818 55.0698 62.8668 56.3197V59.4767L52.7398 66.2007L49.8288 64.9707C48.6927 64.4927 47.3772 64.8341 46.6171 65.8043L45.2504 67.6083C44.5159 68.5304 44.4553 69.8194 45.1001 70.8063L53.5734 83.6667C53.7511 83.94 53.8604 83.981 54.9401 84.76C56.4829 85.8741 58.2079 86.7111 60.0378 87.2337C60.7074 90.8963 64.1378 93.0147 69.7138 93.0967V97.8937C69.7138 99.4032 70.9375 100.627 72.4471 100.627H77.9137V106.094C77.9137 107.603 79.1375 108.827 80.6471 108.827H86.1137V114.294C86.1137 115.803 87.3375 117.027 88.8471 117.027H94.3137V122.494C94.3137 124.003 95.5375 125.227 97.0471 125.227H102.514C102.514 131.965 102.035 130.776 104.878 133.632C105.391 134.14 106.083 134.425 106.805 134.425C107.939 134.425 107.857 134.261 116.235 129.04C116.861 128.65 117.302 128.023 117.459 127.303C117.616 126.582 117.475 125.829 117.069 125.213L70.1648 54.2287ZM61.5684 84.8147C59.4259 84.315 57.4254 83.3335 55.7191 81.9447L47.3551 69.2893L48.7218 67.4853L51.6191 68.7153C52.4605 69.0724 53.4247 68.9852 54.1884 68.483L64.3701 61.7453C65.1337 61.2424 65.5954 60.391 65.6001 59.4767V56.3333L67.8278 55.732L81.6584 76.5737L72.0917 82.8877C68.9874 84.9229 65.1925 85.6178 61.5684 84.8147ZM106.805 131.691L105.233 130.133V125.227C105.233 123.717 104.01 122.494 102.5 122.494H97.0334V117.027C97.0334 115.517 95.8096 114.294 94.3001 114.294H88.8334V108.827C88.8334 107.317 87.6096 106.094 86.1001 106.094H80.6334V100.627C80.6334 99.1174 79.4097 97.8937 77.9001 97.8937H72.4334V93.0967C72.4334 91.5871 71.2097 90.3633 69.7001 90.3633C67.5818 90.3633 64.2334 89.926 63.0718 87.8077C66.7681 88.1414 70.4683 87.2115 73.5677 85.17L83.1344 78.856L114.8 126.717L106.805 131.691Z" fill="black"/>
<path d="M72.2012 69.7129L69.1946 65.1619C68.3642 63.9016 66.6695 63.5529 65.4089 64.3829L56.2796 70.4099C55.024 71.2447 54.6816 72.9386 55.5143 74.1956L58.5209 78.7602C59.3557 80.0158 61.0496 80.3583 62.3066 79.5256L71.4359 73.4986C72.6915 72.6638 73.0339 70.9699 72.2012 69.7129ZM60.8033 77.2569L57.7829 72.6922L66.9669 66.6652L69.9736 71.2299L60.8033 77.2569Z" fill="black"/>
<path d="M77.9 110.194C77.9 109.439 77.2881 108.827 76.5333 108.827H43.7333V106.094H73.8C74.5548 106.094 75.1666 105.482 75.1666 104.727C75.1666 103.972 74.5548 103.36 73.8 103.36H42.3667C41.6119 103.36 41 103.972 41 104.727V110.194C41 110.948 41.6119 111.56 42.3667 111.56H76.5333C77.2881 111.56 77.9 110.948 77.9 110.194Z" fill="black"/>
<path d="M121.633 103.36H106.6C105.845 103.36 105.233 103.972 105.233 104.727C105.233 105.482 105.845 106.094 106.6 106.094H120.266V108.827H110.7C109.945 108.827 109.333 109.439 109.333 110.194C109.333 110.948 109.945 111.56 110.7 111.56H121.633C122.388 111.56 123 110.948 123 110.194V104.727C123 103.972 122.388 103.36 121.633 103.36Z" fill="black"/>
<path d="M82.7518 83.0925C82.6028 82.9926 82.4356 82.9229 82.2598 82.8875C81.5706 82.7489 80.8887 83.1556 80.6832 83.8278C80.4778 84.5 80.8157 85.2185 81.4646 85.4889C82.1134 85.7592 82.8615 85.4933 83.1942 84.874C83.5268 84.2548 83.3354 83.4842 82.7518 83.0925Z" fill="#26DCA2"/>
<path d="M93.1794 102.773C93.6102 103.391 94.4599 103.543 95.079 103.114C95.697 102.683 95.8499 101.834 95.4207 101.215L85.854 87.548C85.5876 87.1187 85.1061 86.8714 84.602 86.905C84.0979 86.9386 83.6534 87.2475 83.4463 87.7084C83.2392 88.1692 83.3032 88.7067 83.6127 89.106L93.1794 102.773Z" fill="#26DCA2"/>
<defs>
<linearGradient id="paint0_linear" x1="158" y1="310" x2="139" y2="-228.5" gradientUnits="userSpaceOnUse">
<stop stop-color="#26DCA2" stop-opacity="0.1"/>
<stop offset="1" stop-color="white" stop-opacity="0"/>
</linearGradient>
</defs>
</svg>
