<svg width="278" height="264" viewBox="0 0 278 264" fill="none" xmlns="http://www.w3.org/2000/svg">
<rect width="278" height="264" fill="white"/>
<rect width="278" height="264" fill="url(#paint0_linear)"/>
<path fill-rule="evenodd" clip-rule="evenodd" d="M63.225 70.1136C76.0518 70.1136 86.45 65.3872 86.45 59.5568C86.45 53.7264 76.0518 49 63.225 49C50.3982 49 40 53.7264 40 59.5568C40 65.3872 50.3982 70.1136 63.225 70.1136Z" stroke="#1D293F" stroke-width="6.75636" stroke-linecap="round" stroke-linejoin="round"/>
<path d="M86.45 59.5568V74.3364C86.45 80.1658 76.0515 84.8932 63.225 84.8932C50.3985 84.8932 40 80.1658 40 74.3364V59.5568" stroke="#1D293F" stroke-width="6.75636" stroke-linecap="round" stroke-linejoin="round"/>
<path d="M78.0045 97.2596C73.9887 98.7671 68.8391 99.6729 63.225 99.6729C50.3985 99.6729 40 94.9455 40 89.116V74.3365" stroke="#1D293F" stroke-width="6.75636" stroke-linecap="round" stroke-linejoin="round"/>
<path d="M78.0024 112.039C73.9887 113.547 68.8391 114.452 63.225 114.452C50.3985 114.452 40 109.725 40 103.896V89.116" stroke="#1D293F" stroke-width="6.75636" stroke-linecap="round" stroke-linejoin="round"/>
<path d="M78.0045 126.818C73.9887 128.326 68.8391 129.232 63.225 129.232C50.3985 129.232 40 124.504 40 118.675V103.895" stroke="#1D293F" stroke-width="6.75636" stroke-linecap="round" stroke-linejoin="round"/>
<path fill-rule="evenodd" clip-rule="evenodd" d="M101.23 97.5615C114.056 97.5615 124.455 92.835 124.455 87.0046C124.455 81.1743 114.056 76.4478 101.23 76.4478C88.4027 76.4478 78.0045 81.1743 78.0045 87.0046C78.0045 92.835 88.4027 97.5615 101.23 97.5615Z" stroke="#26DCA2" stroke-width="6.75636" stroke-linecap="round" stroke-linejoin="round"/>
<path d="M124.455 87.0046V101.784C124.455 107.614 114.056 112.341 101.23 112.341C88.403 112.341 78.0045 107.614 78.0045 101.784V87.0046" stroke="#26DCA2" stroke-width="6.75636" stroke-linecap="round" stroke-linejoin="round"/>
<path d="M124.455 101.784V116.564C124.455 122.393 114.056 127.12 101.23 127.12C88.403 127.12 78.0045 122.393 78.0045 116.564V101.784" stroke="#26DCA2" stroke-width="6.75636" stroke-linecap="round" stroke-linejoin="round"/>
<path d="M124.455 116.564V131.343C124.455 137.173 114.056 141.9 101.23 141.9C88.403 141.9 78.0045 137.173 78.0045 131.343V116.564" stroke="#26DCA2" stroke-width="6.75636" stroke-linecap="round" stroke-linejoin="round"/>
<path d="M42.656 208H46.016V197.104L50.528 208H53.072L57.56 197.104V208H60.92V191.248H57.128L51.8 203.704L46.472 191.248H42.656V208ZM63.3779 201.304C63.3779 205.456 66.0659 208.216 69.4259 208.216C71.5379 208.216 73.0499 207.208 73.8419 206.056V208H77.2259V194.704H73.8419V196.6C73.0499 195.496 71.5859 194.488 69.4499 194.488C66.0659 194.488 63.3779 197.152 63.3779 201.304ZM73.8419 201.352C73.8419 203.872 72.1619 205.264 70.3139 205.264C68.5139 205.264 66.8099 203.824 66.8099 201.304C66.8099 198.784 68.5139 197.44 70.3139 197.44C72.1619 197.44 73.8419 198.832 73.8419 201.352ZM83.8676 201.376C83.8676 198.808 85.0676 198.04 87.0596 198.04H87.9476V194.512C86.0996 194.512 84.7076 195.4 83.8676 196.768V194.704H80.5076V208H83.8676V201.376ZM90.2107 208H93.5707V202.336L98.0827 208H102.451L96.5467 201.376L102.403 194.704H98.0347L93.5707 200.344V190.24H90.2107V208ZM109.938 197.248C111.666 197.248 113.058 198.352 113.106 200.104H106.794C107.058 198.28 108.33 197.248 109.938 197.248ZM116.25 203.824H112.626C112.194 204.712 111.402 205.432 109.962 205.432C108.282 205.432 106.938 204.328 106.77 202.36H116.49C116.562 201.928 116.586 201.496 116.586 201.064C116.586 197.104 113.874 194.488 110.034 194.488C106.098 194.488 103.362 197.152 103.362 201.352C103.362 205.528 106.17 208.216 110.034 208.216C113.322 208.216 115.53 206.272 116.25 203.824ZM119.567 203.872C119.567 206.92 121.271 208 123.815 208H125.927V205.168H124.367C123.311 205.168 122.951 204.784 122.951 203.896V197.464H125.927V194.704H122.951V191.416H119.567V194.704H117.983V197.464H119.567V203.872ZM128.344 208H131.704V194.704H128.344V208ZM130.048 193.12C131.224 193.12 132.112 192.256 132.112 191.152C132.112 190.048 131.224 189.184 130.048 189.184C128.848 189.184 127.984 190.048 127.984 191.152C127.984 192.256 128.848 193.12 130.048 193.12ZM144.335 208H147.695V200.2C147.695 196.528 145.487 194.512 142.391 194.512C140.687 194.512 139.247 195.232 138.383 196.36V194.704H135.023V208H138.383V200.656C138.383 198.52 139.559 197.368 141.383 197.368C143.159 197.368 144.335 198.52 144.335 200.656V208ZM150.026 201.304C150.026 205.456 152.714 208.216 156.098 208.216C158.186 208.216 159.698 207.184 160.49 206.032V208.096C160.49 210.568 159.05 211.624 157.202 211.624C155.522 211.624 154.274 210.832 153.938 209.632H150.602C150.938 212.68 153.554 214.552 157.298 214.552C161.666 214.552 163.874 211.696 163.874 208.096V194.704H160.49V196.6C159.698 195.448 158.186 194.488 156.098 194.488C152.714 194.488 150.026 197.152 150.026 201.304ZM160.49 201.352C160.49 203.872 158.81 205.264 156.962 205.264C155.162 205.264 153.458 203.824 153.458 201.304C153.458 198.784 155.162 197.44 156.962 197.44C158.81 197.44 160.49 198.832 160.49 201.352Z" fill="#1D293F"/>
<defs>
<linearGradient id="paint0_linear" x1="158" y1="310" x2="139" y2="-228.5" gradientUnits="userSpaceOnUse">
<stop stop-color="#26DCA2" stop-opacity="0.1"/>
<stop offset="1" stop-color="white" stop-opacity="0"/>
</linearGradient>
</defs>
</svg>
