<svg width="44" height="45" viewBox="0 0 44 45" fill="none" xmlns="http://www.w3.org/2000/svg">
<ellipse cx="22" cy="22.5" rx="22" ry="22.5" fill="#26DCA2"/>
<path d="M28.4372 24.9747C27.6815 24.7941 27.0837 25.1839 26.5544 25.5244C26.0123 25.8752 24.9816 26.8043 24.3907 26.5665C21.3657 25.1826 18.5207 22.2408 17.2891 18.8662C17.072 18.1957 17.9043 17.0431 18.2177 16.4337C18.5218 15.8438 18.8654 15.1733 18.7087 14.3274C18.5671 13.5672 16.7354 10.9775 16.0877 10.2693C15.6605 9.8015 15.2229 9.54421 14.7737 9.50263C13.0847 9.42207 11.1985 11.926 10.8676 12.5251C10.0388 13.8024 10.0435 15.502 10.8816 17.5629C12.9013 23.0984 20.5404 31.4523 25.541 33.7809C26.4639 34.2603 27.3078 34.5007 28.0657 34.5007C28.8075 34.5007 29.468 34.2707 30.0356 33.8146C30.4639 33.5405 32.8098 31.3406 32.7483 29.4135C32.7112 28.9224 32.4802 28.4312 32.0646 27.9556C31.432 27.2292 29.1162 25.1333 28.4372 24.9747Z" fill="white"/>
</svg>
