<svg width="44" height="45" viewBox="0 0 44 45" fill="none" xmlns="http://www.w3.org/2000/svg">
<ellipse cx="22" cy="22.5" rx="22" ry="22.5" fill="#26DCA2"/>
<path fill-rule="evenodd" clip-rule="evenodd" d="M21.7281 32.9137C21.8388 32.9715 21.9627 33.0009 22.0865 33C22.2103 32.999 22.3331 32.9686 22.4449 32.9097L26.0128 31.0025C27.0245 30.4631 27.8168 29.8601 28.435 29.1579C29.779 27.6282 30.5129 25.6758 30.4998 23.6626L30.4575 17.022C30.4535 16.2571 29.9511 15.5746 29.2082 15.3265L22.5707 13.0996C22.1711 12.9642 21.7331 12.9672 21.3405 13.1064L14.7282 15.4128C13.9893 15.6707 13.496 16.3581 13.5 17.124L13.5423 23.7597C13.5554 25.7758 14.3145 27.7194 15.6806 29.2335C16.3048 29.9258 17.1041 30.52 18.127 31.0505L21.7281 32.9137ZM20.7836 25.1089C20.9326 25.2521 21.1259 25.3227 21.3192 25.3207C21.5125 25.3198 21.7047 25.2472 21.8517 25.1021L25.7508 21.2581C26.0438 20.9688 26.0408 20.504 25.7448 20.2187C25.4478 19.9333 24.9696 19.9353 24.6766 20.2245L21.3081 23.5449L19.9289 22.2191C19.6319 21.9337 19.1547 21.9367 18.8607 22.226C18.5677 22.5152 18.5708 22.98 18.8678 23.2654L20.7836 25.1089Z" fill="white"/>
</svg>
